<svg width="12" height="3" viewBox="0 0 12 3" fill="none" xmlns="http://www.w3.org/2000/svg">
<path d="M1.43503 2.98779C1.05151 2.98779 0.72303 2.85284 0.449593 2.58296C0.179707 2.31307 0.046539 1.98637 0.0500901 1.60284C0.046539 1.22642 0.179707 0.905046 0.449593 0.638711C0.72303 0.368824 1.05151 0.233881 1.43503 0.233881C1.79725 0.233881 2.11685 0.368824 2.39384 0.638711C2.67438 0.905046 2.81643 1.22642 2.81998 1.60284C2.81643 1.85853 2.74895 2.09113 2.61756 2.30064C2.48972 2.51016 2.32104 2.67706 2.11152 2.80135C1.90556 2.92564 1.68006 2.98779 1.43503 2.98779ZM6.00535 2.98779C5.62182 2.98779 5.29334 2.85284 5.01991 2.58296C4.75002 2.31307 4.61685 1.98637 4.6204 1.60284C4.61685 1.22642 4.75002 0.905046 5.01991 0.638711C5.29334 0.368824 5.62182 0.233881 6.00535 0.233881C6.36756 0.233881 6.68716 0.368824 6.96415 0.638711C7.24469 0.905046 7.38674 1.22642 7.39029 1.60284C7.38674 1.85853 7.31927 2.09113 7.18787 2.30064C7.06003 2.51016 6.89135 2.67706 6.68184 2.80135C6.47587 2.92564 6.25037 2.98779 6.00535 2.98779ZM10.5757 2.98779C10.1921 2.98779 9.86366 2.85284 9.59022 2.58296C9.32033 2.31307 9.18716 1.98637 9.19072 1.60284C9.18716 1.22642 9.32033 0.905046 9.59022 0.638711C9.86366 0.368824 10.1921 0.233881 10.5757 0.233881C10.9379 0.233881 11.2575 0.368824 11.5345 0.638711C11.815 0.905046 11.9571 1.22642 11.9606 1.60284C11.9571 1.85853 11.8896 2.09113 11.7582 2.30064C11.6303 2.51016 11.4617 2.67706 11.2521 2.80135C11.0462 2.92564 10.8207 2.98779 10.5757 2.98779Z" fill="#0E0E0E"/>
</svg>
