<svg width="20" height="20" viewBox="0 0 20 20" fill="none" xmlns="http://www.w3.org/2000/svg">
<path d="M6.85002 10.6C6.73278 10.4829 6.66683 10.324 6.66669 10.1583V9.84162C6.66861 9.67628 6.73428 9.51806 6.85002 9.39996L11.1334 5.12496C11.2116 5.04608 11.3181 5.00171 11.4292 5.00171C11.5403 5.00171 11.6468 5.04608 11.725 5.12496L12.3167 5.71662C12.3951 5.79343 12.4392 5.89855 12.4392 6.00829C12.4392 6.11803 12.3951 6.22316 12.3167 6.29996L8.60835 9.99996L12.3167 13.7C12.3956 13.7782 12.4399 13.8847 12.4399 13.9958C12.4399 14.1069 12.3956 14.2134 12.3167 14.2916L11.725 14.875C11.6468 14.9538 11.5403 14.9982 11.4292 14.9982C11.3181 14.9982 11.2116 14.9538 11.1334 14.875L6.85002 10.6Z" fill="#4D4B4B"/>
</svg>
