<svg width="30" height="30" viewBox="0 0 30 30" fill="none" xmlns="http://www.w3.org/2000/svg">
<path d="M15.0011 6.25C16.7914 6.25 18.5082 6.88214 19.7741 8.00736C21.04 9.13258 21.7511 10.6587 21.7511 12.25C21.7511 14.7114 22.3075 16.5545 23.029 17.9099C23.9507 19.6416 24.4116 20.5075 24.386 20.7053C24.3561 20.9361 24.318 20.9996 24.1283 21.1344C23.9656 21.25 23.1567 21.25 21.5389 21.25H8.46332C6.84547 21.25 6.03656 21.25 5.87395 21.1344C5.68426 20.9996 5.64615 20.9361 5.61625 20.7053C5.59061 20.5075 6.0515 19.6416 6.97329 17.9099C7.69475 16.5545 8.25111 14.7114 8.25111 12.25C8.25111 10.6587 8.96227 9.13258 10.2281 8.00736C11.494 6.88214 13.2109 6.25 15.0011 6.25ZM15.0011 6.25V3.75M11.6936 25C12.5764 25.7791 13.736 26.252 15.0061 26.252C16.2761 26.252 17.4357 25.7791 18.3186 25" stroke="black" stroke-width="2.5" stroke-linecap="round" stroke-linejoin="round"/>
</svg>
