<svg width="20" height="20" viewBox="0 0 20 20" fill="none" xmlns="http://www.w3.org/2000/svg">
<path d="M13.15 10.6C13.2673 10.4829 13.3332 10.324 13.3334 10.1583V9.84162C13.3315 9.67628 13.2658 9.51806 13.15 9.39996L8.86671 5.12496C8.78847 5.04608 8.68197 5.00171 8.57087 5.00171C8.45978 5.00171 8.35328 5.04608 8.27504 5.12496L7.68337 5.71662C7.60499 5.79343 7.56081 5.89855 7.56081 6.00829C7.56081 6.11803 7.60499 6.22316 7.68337 6.29996L11.3917 9.99996L7.68337 13.7C7.60449 13.7782 7.56012 13.8847 7.56012 13.9958C7.56012 14.1069 7.60449 14.2134 7.68337 14.2916L8.27504 14.875C8.35328 14.9538 8.45978 14.9982 8.57087 14.9982C8.68197 14.9982 8.78847 14.9538 8.86671 14.875L13.15 10.6Z" fill="#121212"/>
</svg>
