<svg width="40" height="40" viewBox="0 0 40 40" fill="none" xmlns="http://www.w3.org/2000/svg">
<path d="M20.0001 3.38074C8.9542 3.38074 0 12.3349 0 23.3808C0 28.194 1.70122 32.6101 4.53411 36.0611C4.97116 32.5616 8.46643 29.6019 13.3676 28.2002C15.1582 29.8686 17.4711 30.8808 19.9999 30.8808C22.4693 30.8808 24.7369 29.9195 26.5093 28.3211C31.4528 29.8453 34.873 32.978 34.9854 36.6192C38.1034 33.092 40 28.4592 40 23.3808C40 12.3349 31.0458 3.38074 20.0001 3.38074ZM20.0001 28.5123C18.7233 28.5123 17.5203 28.1616 16.452 27.554C13.8777 26.0891 12.1052 23.0915 12.1052 19.6307C12.1052 14.7333 15.6467 10.7489 20.0001 10.7489C24.3538 10.7489 27.8949 14.7333 27.8949 19.6307C27.8949 23.1447 26.0669 26.1793 23.4286 27.6187C22.3892 28.1854 21.2294 28.5123 20.0001 28.5123Z" fill="black"/>
</svg>
